<?xml version="1.0" encoding="utf-8"?>
<svg viewBox="0 0 20 20" xmlns="http://www.w3.org/2000/svg">
  <path id="path4" style="color:#000000;fill:#999999;fill-rule:evenodd;stroke-width:0.580509;stroke-dasharray:none" d="m 14.495036,3e-6 v 1.160803 h 3.64828 l -6.955218,6.956117 0.694982,0.694982 6.956117,-6.955218 v 3.64828 H 20 V 3e-6 Z M 3e-6,5.504964 H 1.160806 V 1.856684 L 8.116923,8.811902 8.811905,8.11692 1.856687,1.160803 h 3.64828 V 0 H 3e-6 Z M 5.504964,19.999997 V 18.839194 H 1.856684 L 8.811902,11.883077 8.11692,11.188095 1.160803,18.143313 v -3.64828 H 0 v 5.504964 z m 14.495033,-5.504961 h -1.160803 v 3.64828 l -6.956117,-6.955218 -0.694982,0.694982 6.955218,6.956117 h -3.64828 V 20 h 5.504964 z" transform="matrix(1, 0, 0, 1, 2.220446049250313e-16, 8.881784197001252e-16)"/>
</svg>